<?xml version="1.0" encoding="UTF-8"?>
<svg id="Layer_1" data-name="Layer 1" xmlns="http://www.w3.org/2000/svg" viewBox="0 0 334.62 48.06">
  <defs>
    <style>
      .cls-1, .cls-2 {
        fill: #ffbf00;
      }

      .cls-2 {
        fill-rule: evenodd;
      }
    </style>
  </defs>
  <g>
    <path class="cls-1" d="m76.88,39.44c.63-.05,1.27-.07,1.93-.07s1.23.16,1.71.48c.48.32.72.79.72,1.4,0,.46-.13.89-.38,1.28-.25.4-.56.69-.91.89.57.18,1.05.48,1.44.92.39.43.58.92.58,1.46,0,.76-.24,1.34-.72,1.73-.48.39-1.14.59-1.97.59s-1.63-.03-2.39-.09v-8.6Zm2.45,8.17c.59,0,1.07-.16,1.45-.49s.57-.74.57-1.25-.18-.95-.55-1.32c-.37-.37-.87-.62-1.5-.76-.3-.06-.64-.09-1.04-.09h-.8v3.86c.36.04.98.06,1.88.06h0Zm1.32-6.38v-.33c0-.22-.18-.45-.55-.69-.36-.24-.78-.36-1.23-.36s-.93.01-1.41.05v3.3h.59c.29,0,.71.02,1.28.07.36-.19.67-.47.93-.83.26-.36.39-.76.39-1.2h0Zm0,0"/>
    <path class="cls-1" d="m90.35,48.06v-8.64h4.02v.51h-3.43v3.18h3.11v.5h-3.11v3.95h3.57v.51h-4.15Zm0,0"/>
    <path class="cls-1" d="m102.46,48.06v-8.64h4.01v.51h-3.43v3.18h3.11v.5h-3.11v3.95h3.57v.51h-4.15Zm0,0"/>
    <path class="cls-1" d="m127.4,40.17c-.59-.25-1.17-.38-1.75-.38-1.18,0-1.77.43-1.77,1.3,0,.38.13.73.4,1.06.26.33.59.62.97.87.38.25.76.51,1.14.78.38.27.7.59.97.96.27.37.4.77.4,1.21,0,.73-.25,1.28-.74,1.66-.49.37-1.17.56-2.04.56s-1.61-.22-2.22-.66l.29-.44c.58.38,1.21.57,1.91.57s1.22-.14,1.59-.42c.37-.28.56-.68.56-1.2,0-.36-.14-.71-.4-1.04-.26-.32-.58-.62-.96-.88-.38-.27-.76-.53-1.14-.81-.38-.27-.7-.6-.97-.98-.26-.38-.4-.79-.4-1.22,0-.57.21-1.02.64-1.36.42-.33.99-.5,1.71-.5s1.39.15,2.01.43l-.2.47Zm0,0"/>
    <path class="cls-1" d="m140.91,47.61h-.32l-2.53-6.12c-.14-.34-.26-.64-.35-.89l-.12.92-.99,6.54h-.59l1.43-8.72h.34l2.69,6.41c.14.3.25.58.32.84.03-.09.15-.37.38-.83l3.01-6.42h.33l1.32,8.72h-.61l-.94-6.57c-.07-.41-.1-.72-.1-.93,0,0-.03.05-.06.11-.03.07-.08.18-.14.34-.07.16-.14.32-.21.49l-2.86,6.11Zm0,0"/>
    <path class="cls-1" d="m155.41,45.06l-1.25,3h-.62l3.64-8.71h.34l3.65,8.71h-.65l-1.25-3h-3.87Zm1.91-4.74s-.03.05-.05.14c-.11.35-.22.64-.32.88l-1.33,3.21h3.46l-1.33-3.2c-.28-.61-.42-.96-.42-1.04h0Zm0,0"/>
    <path class="cls-1" d="m169.5,48.06v-8.61c.77-.05,1.41-.08,1.92-.08.82,0,1.5.21,2.03.63.54.42.8,1.02.8,1.8,0,.52-.16,1.01-.46,1.46-.3.45-.65.81-1.03,1.08.3.41.67.9,1.1,1.47.44.57.72.92.85,1.07.49.52,1.05.82,1.67.89l-.02.39c-.49,0-.89-.09-1.19-.23-.31-.14-.6-.36-.88-.64-.28-.29-.97-1.2-2.07-2.71-.79,0-1.51-.02-2.15-.07v3.55h-.58Zm2.38-3.96c.36,0,.73-.23,1.14-.7.4-.47.6-1.01.6-1.63s-.21-1.09-.62-1.4c-.41-.32-.97-.48-1.65-.48-.36,0-.78.01-1.27.05v4.1c.65.04,1.25.06,1.8.06h0Zm0,0"/>
    <path class="cls-1" d="m183.91,39.92h-2.93v-.51h6.43v.51h-2.93v8.14h-.58v-8.14Zm0,0"/>
    <path class="cls-1" d="m195.15,48.06v-8.64h4.01v.51h-3.43v3.18h3.11v.5h-3.11v3.95h3.57v.51h-4.14Zm0,0"/>
    <path class="cls-1" d="m207.74,48.06v-8.61c.76-.05,1.41-.08,1.93-.08.82,0,1.5.21,2.03.63.53.42.8,1.02.8,1.8,0,.52-.15,1.01-.46,1.46-.31.45-.65.81-1.03,1.08.3.41.67.9,1.11,1.47.44.57.72.92.85,1.07.49.52,1.05.82,1.67.89v.39c-.5,0-.9-.09-1.21-.23-.3-.14-.6-.36-.88-.64-.28-.29-.97-1.2-2.07-2.71-.79,0-1.51-.02-2.15-.07v3.55h-.58Zm2.38-3.96c.36,0,.73-.23,1.14-.7.4-.47.61-1.01.61-1.63s-.21-1.09-.62-1.4c-.41-.32-.96-.48-1.65-.48-.36,0-.79.01-1.27.05v4.1c.64.04,1.25.06,1.8.06h0Zm0,0"/>
    <path class="cls-1" d="m233.77,45.96l2.5-6.38h.35l2.19,6.43c.17.51.28.88.34,1.1.06-.26.17-.62.34-1.09l2.23-6.61h.61l-3.01,8.72h-.34l-2.23-6.41c-.04-.11-.07-.21-.11-.31-.04-.1-.07-.2-.09-.28-.02-.08-.05-.15-.07-.2l-.05-.15s-.01-.07-.01-.07c-.1.29-.22.63-.38,1l-2.53,6.42h-.34l-3.04-8.72h.64l2.21,6.5c.1.29.19.55.26.79.07.23.11.36.11.39.04-.18.18-.56.41-1.12h0Zm0,0"/>
    <rect class="cls-1" x="250.34" y="39.41" width=".58" height="8.65"/>
    <path class="cls-1" d="m260.97,39.92h-2.93v-.51h6.43v.51h-2.93v8.14h-.58v-8.14Zm0,0"/>
    <path class="cls-1" d="m279.25,48.06v-4.33h-5.94v4.33h-.58v-8.64h.58v3.8h5.94v-3.8h.58v8.64h-.58Zm0,0"/>
    <path class="cls-1" d="m299.31,45.06l-1.24,3h-.62l3.64-8.71h.34l3.65,8.71h-.65l-1.25-3h-3.87Zm1.91-4.74s-.02.05-.05.14c-.11.35-.22.64-.33.88l-1.33,3.21h3.46l-1.33-3.2c-.28-.61-.43-.96-.43-1.04h0Zm0,0"/>
    <rect class="cls-1" x="312.31" y="39.41" width=".58" height="8.65"/>
    <path class="cls-1" d="m55.14,30.82v-7.12h11.25c2.31,0,4.34-.88,5.76-2.31,1.66-1.66,2.54-3.86,2.54-5.93s-.88-4.27-2.58-5.89c-1.49-1.46-3.39-2.34-5.73-2.34h-11.25V.12h11.25c7.52,0,12.71,4.71,14.91,9.49.88,1.9,1.25,3.86,1.25,5.86,0,3.8-1.52,7.69-4.64,10.75-2.71,2.64-6.91,4.61-11.52,4.61h-11.25Zm0,0"/>
    <path class="cls-1" d="m108.9,7.23h-22.54V.12h22.54v7.12Zm0,11.8h-22.54v-7.09h22.54v7.09Zm0,11.79h-22.54v-7.12h22.54v7.12Zm0,0"/>
    <path class="cls-1" d="m134.93,15.47l12.37,15.32-9.69.1-7.56-9.39-7.52,9.32h-9.83l12.41-15.32L112.7.12h9.83l7.52,9.29L137.58.12h9.73l-12.37,15.35Zm0,0"/>
    <path class="cls-1" d="m171,.12v30.71h-7.87V7.23h-12.03V.12h19.9Zm0,0"/>
    <path class="cls-1" d="m197.34,7.23h-22.54V.12h22.54v7.12Zm0,11.8h-22.54v-7.09h22.54v7.09Zm0,11.79h-22.54v-7.12h22.54v7.12Zm0,0"/>
    <path class="cls-1" d="m209.13,14.21h1.29c1.79.04,3.62.07,5.42.07,2,0,3.39-1.83,3.39-3.56s-1.43-3.49-3.39-3.49h-14.71V.12h14.71c7.52,0,11.25,5.97,11.25,10.61,0,3.36-1.76,7.12-5.56,9.22l6.41,10.88h-8.88l-9.93-16.61Zm-8-5.46h7.86v22.07h-7.86V8.76Zm0,0"/>
    <path class="cls-1" d="m281.94,21.37c0,4.07-3.39,9.46-10.07,9.46h-17.35v-7.12h17.35c1.25,0,2.2-1.12,2.2-2.34s-.99-2.34-2.2-2.34h-17.35v-7.09h17.35c1.25,0,2.2-1.19,2.2-2.41s-.95-2.3-2.2-2.3h-17.35V.12h17.35c6.68,0,10.07,5.36,10.07,9.42,0,2.1-.68,4.14-2.17,5.93,1.52,1.76,2.17,3.83,2.17,5.9h0Zm0,0"/>
    <path class="cls-1" d="m308.28,7.23h-22.54V.12h22.54v7.12Zm0,11.8h-22.54v-7.09h22.54v7.09Zm0,11.79h-22.54v-7.12h22.54v7.12Zm0,0"/>
    <path class="cls-1" d="m334.62,7.23h-22.54V.12h22.54v7.12Zm0,11.8h-22.54v-7.09h22.54v7.09Zm0,11.79h-22.54v-7.12h22.54v7.12Zm0,0"/>
  </g>
  <path class="cls-2" d="m7.1,22.07c-.53,0-1.03-.29-1.3-.75L.31,11.85c-.27-.46-.27-1.03,0-1.5L5.81.86c.26-.46.75-.74,1.27-.75h10.95c.53,0,1.03.29,1.3.75l5.47,9.49c.27.46.27,1.03,0,1.5l-5.47,9.48c-.27.46-.76.75-1.3.75H7.1Zm34.64-8.23l5.49,9.48h.02c.27.46.27,1.03,0,1.5l-5.48,9.48c-.27.46-.76.75-1.3.75h-10.95c-.53,0-1.03-.29-1.3-.75l-5.47-9.48c-.27-.46-.27-1.03,0-1.5l5.47-9.48c.27-.46.76-.75,1.3-.75h10.93c.53,0,1.03.29,1.3.75h0ZM7.08,48.03h10.95c.53,0,1.03-.29,1.3-.75l5.47-9.48c.27-.46.27-1.03,0-1.5l-5.47-9.48c-.27-.46-.76-.75-1.3-.75H7.1c-.53,0-1.03.29-1.3.75L.31,36.3c-.27.46-.27,1.03,0,1.5l5.5,9.48c.26.46.75.74,1.27.75h0Zm0,0"/>
</svg>